<mxfile host="65bd71144e">
    <diagram id="Vbm-kfF-Ce4CbxnOXno_" name="Page-1">
        <mxGraphModel dx="2045" dy="1849" grid="1" gridSize="10" guides="1" tooltips="1" connect="1" arrows="1" fold="1" page="1" pageScale="1" pageWidth="850" pageHeight="1100" math="0" shadow="0">
            <root>
                <mxCell id="0"/>
                <mxCell id="1" parent="0"/>
                <mxCell id="3" value="" style="endArrow=none;html=1;" parent="1" edge="1">
                    <mxGeometry width="50" height="50" relative="1" as="geometry">
                        <mxPoint x="480" y="460" as="sourcePoint"/>
                        <mxPoint x="480" y="40" as="targetPoint"/>
                    </mxGeometry>
                </mxCell>
                <mxCell id="5" value="&lt;div style=&quot;color: rgb(204, 204, 204); font-family: Consolas, &amp;quot;Courier New&amp;quot;, monospace; font-size: 14px; line-height: 19px; white-space: pre;&quot;&gt;&lt;div style=&quot;&quot;&gt;&lt;span&gt;&lt;span style=&quot;color: rgb(204, 204, 204);&quot;&gt;&amp;nbsp; &lt;/span&gt;&lt;span style=&quot;color: rgb(86, 156, 214);&quot;&gt;timer_statistics&lt;/span&gt;&lt;span style=&quot;color: rgb(204, 204, 204);&quot;&gt;:&lt;/span&gt;&lt;/span&gt;&lt;/div&gt;&lt;div style=&quot;&quot;&gt;&lt;span&gt;&lt;span style=&quot;color: rgb(204, 204, 204);&quot;&gt;&amp;nbsp; &amp;nbsp; &lt;/span&gt;&lt;span style=&quot;color: rgb(86, 156, 214);&quot;&gt;typename&lt;/span&gt;&lt;span style=&quot;color: rgb(204, 204, 204);&quot;&gt;: &lt;/span&gt;&lt;span style=&quot;color: rgb(206, 145, 120);&quot;&gt;timer_statistics_t&lt;/span&gt;&lt;/span&gt;&lt;/div&gt;&lt;div style=&quot;&quot;&gt;&lt;span&gt;&lt;span style=&quot;color: rgb(204, 204, 204);&quot;&gt;&amp;nbsp; &amp;nbsp; &lt;/span&gt;&lt;span style=&quot;color: rgb(86, 156, 214);&quot;&gt;string_serialiser&lt;/span&gt;&lt;span style=&quot;color: rgb(204, 204, 204);&quot;&gt;: &lt;/span&gt;&lt;span style=&quot;color: rgb(206, 145, 120);&quot;&gt;string_serialiser_timer_statistics&lt;/span&gt;&lt;/span&gt;&lt;/div&gt;&lt;div style=&quot;&quot;&gt;&lt;span style=&quot;color: rgb(204, 204, 204);&quot;&gt;&amp;nbsp;&lt;/span&gt;&lt;/div&gt;&lt;div style=&quot;&quot;&gt;&lt;span&gt;&lt;span style=&quot;color: rgb(204, 204, 204);&quot;&gt;&amp;nbsp; &amp;nbsp; &lt;/span&gt;&lt;span style=&quot;color: rgb(86, 156, 214);&quot;&gt;model&lt;/span&gt;&lt;span style=&quot;color: rgb(204, 204, 204);&quot;&gt;:&lt;/span&gt;&lt;/span&gt;&lt;/div&gt;&lt;div style=&quot;&quot;&gt;&lt;span&gt;&lt;span style=&quot;color: rgb(204, 204, 204);&quot;&gt;&amp;nbsp; &amp;nbsp; &amp;nbsp; &lt;/span&gt;&lt;span style=&quot;color: rgb(86, 156, 214);&quot;&gt;last&lt;/span&gt;&lt;span style=&quot;color: rgb(204, 204, 204);&quot;&gt;: &lt;/span&gt;&lt;span style=&quot;color: rgb(206, 145, 120);&quot;&gt;u32&lt;/span&gt;&lt;/span&gt;&lt;/div&gt;&lt;div style=&quot;&quot;&gt;&lt;span&gt;&lt;span style=&quot;color: rgb(204, 204, 204);&quot;&gt;&amp;nbsp; &amp;nbsp; &amp;nbsp; &lt;/span&gt;&lt;span style=&quot;color: rgb(86, 156, 214);&quot;&gt;max&lt;/span&gt;&lt;span style=&quot;color: rgb(204, 204, 204);&quot;&gt;: &lt;/span&gt;&lt;span style=&quot;color: rgb(206, 145, 120);&quot;&gt;u32&lt;/span&gt;&lt;/span&gt;&lt;/div&gt;&lt;div style=&quot;&quot;&gt;&lt;span&gt;&lt;span style=&quot;color: rgb(204, 204, 204);&quot;&gt;&amp;nbsp; &amp;nbsp; &amp;nbsp; &lt;/span&gt;&lt;span style=&quot;color: rgb(86, 156, 214);&quot;&gt;min&lt;/span&gt;&lt;span style=&quot;color: rgb(204, 204, 204);&quot;&gt;: &lt;/span&gt;&lt;span style=&quot;color: rgb(206, 145, 120);&quot;&gt;u32&lt;/span&gt;&lt;/span&gt;&lt;/div&gt;&lt;div style=&quot;&quot;&gt;&lt;span&gt;&lt;span style=&quot;color: rgb(204, 204, 204);&quot;&gt;&amp;nbsp; &amp;nbsp; &amp;nbsp; &lt;/span&gt;&lt;span style=&quot;color: rgb(86, 156, 214);&quot;&gt;average&lt;/span&gt;&lt;span style=&quot;color: rgb(204, 204, 204);&quot;&gt;: &lt;/span&gt;&lt;span style=&quot;color: rgb(206, 145, 120);&quot;&gt;f32&lt;/span&gt;&lt;/span&gt;&lt;/div&gt;&lt;/div&gt;" style="rounded=1;whiteSpace=wrap;html=1;align=left;fillColor=#323232;fontColor=#ffffff;strokeColor=#314354;arcSize=6;" parent="1" vertex="1">
                    <mxGeometry x="-120" y="220" width="560" height="210" as="geometry"/>
                </mxCell>
                <mxCell id="6" value="&lt;div style=&quot;color: rgb(204, 204, 204); font-family: Consolas, &amp;quot;Courier New&amp;quot;, monospace; font-size: 14px; line-height: 19px; white-space: pre;&quot;&gt;&lt;div style=&quot;&quot;&gt;&lt;div style=&quot;color: rgb(204, 204, 204); line-height: 19px;&quot;&gt;&lt;div style=&quot;&quot;&gt;&lt;span&gt;&lt;span style=&quot;color: rgb(204, 204, 204);&quot;&gt;&amp;nbsp; &lt;/span&gt;&lt;span style=&quot;color: rgb(86, 156, 214);&quot;&gt;high_resolution_timer&lt;/span&gt;&lt;span style=&quot;color: rgb(204, 204, 204);&quot;&gt;:&lt;/span&gt;&lt;/span&gt;&lt;/div&gt;&lt;div style=&quot;&quot;&gt;&lt;span&gt;&lt;span style=&quot;color: rgb(204, 204, 204);&quot;&gt;&amp;nbsp; &amp;nbsp; &lt;/span&gt;&lt;span style=&quot;color: rgb(86, 156, 214);&quot;&gt;typename&lt;/span&gt;&lt;span style=&quot;color: rgb(204, 204, 204);&quot;&gt;: &lt;/span&gt;&lt;span style=&quot;color: rgb(206, 145, 120);&quot;&gt;high_resolution_timer_t&lt;/span&gt;&lt;/span&gt;&lt;/div&gt;&lt;div style=&quot;&quot;&gt;&lt;span&gt;&lt;span style=&quot;color: rgb(204, 204, 204);&quot;&gt;&amp;nbsp; &amp;nbsp; &lt;/span&gt;&lt;span style=&quot;color: rgb(86, 156, 214);&quot;&gt;string_serialiser&lt;/span&gt;&lt;span style=&quot;color: rgb(204, 204, 204);&quot;&gt;: &lt;/span&gt;&lt;span style=&quot;color: rgb(206, 145, 120);&quot;&gt;string_serialiser_high_res_timer&lt;/span&gt;&lt;/span&gt;&lt;/div&gt;&lt;span&gt;&lt;br&gt;&lt;/span&gt;&lt;div style=&quot;&quot;&gt;&lt;span&gt;&lt;span style=&quot;color: rgb(204, 204, 204);&quot;&gt;&amp;nbsp; &amp;nbsp; &lt;/span&gt;&lt;span style=&quot;color: rgb(86, 156, 214);&quot;&gt;model&lt;/span&gt;&lt;span style=&quot;color: rgb(204, 204, 204);&quot;&gt;:&lt;/span&gt;&lt;/span&gt;&lt;/div&gt;&lt;div style=&quot;&quot;&gt;&lt;span&gt;&lt;span style=&quot;color: rgb(204, 204, 204);&quot;&gt;&amp;nbsp; &amp;nbsp; &amp;nbsp; &lt;/span&gt;&lt;span style=&quot;color: rgb(86, 156, 214);&quot;&gt;start_time&lt;/span&gt;&lt;span style=&quot;color: rgb(204, 204, 204);&quot;&gt;: &lt;/span&gt;&lt;span style=&quot;color: rgb(206, 145, 120);&quot;&gt;u64&lt;/span&gt;&lt;/span&gt;&lt;/div&gt;&lt;div style=&quot;&quot;&gt;&lt;span&gt;&lt;span style=&quot;color: rgb(204, 204, 204);&quot;&gt;&amp;nbsp; &amp;nbsp; &amp;nbsp; &lt;/span&gt;&lt;span style=&quot;color: rgb(86, 156, 214);&quot;&gt;duration&lt;/span&gt;&lt;span style=&quot;color: rgb(204, 204, 204);&quot;&gt;: &lt;/span&gt;&lt;span style=&quot;color: rgb(206, 145, 120);&quot;&gt;timer_statistics&lt;/span&gt;&lt;/span&gt;&lt;/div&gt;&lt;div style=&quot;&quot;&gt;&lt;span&gt;&lt;span style=&quot;color: rgb(204, 204, 204);&quot;&gt;&amp;nbsp; &amp;nbsp; &amp;nbsp; &lt;/span&gt;&lt;span style=&quot;color: rgb(86, 156, 214);&quot;&gt;time_between_calls&lt;/span&gt;&lt;span style=&quot;color: rgb(204, 204, 204);&quot;&gt;: &lt;/span&gt;&lt;span style=&quot;color: rgb(206, 145, 120);&quot;&gt;timer_statistics&lt;/span&gt;&lt;/span&gt;&lt;/div&gt;&lt;div style=&quot;&quot;&gt;&lt;span&gt;&lt;span style=&quot;color: rgb(204, 204, 204);&quot;&gt;&amp;nbsp; &amp;nbsp; &amp;nbsp; &lt;/span&gt;&lt;span style=&quot;color: rgb(86, 156, 214);&quot;&gt;last_reset_time&lt;/span&gt;&lt;span style=&quot;color: rgb(204, 204, 204);&quot;&gt;: &lt;/span&gt;&lt;span style=&quot;color: rgb(206, 145, 120);&quot;&gt;u64&lt;/span&gt;&lt;/span&gt;&lt;/div&gt;&lt;div style=&quot;&quot;&gt;&lt;span&gt;&lt;span style=&quot;color: rgb(204, 204, 204);&quot;&gt;&amp;nbsp; &amp;nbsp; &amp;nbsp; &lt;/span&gt;&lt;span style=&quot;color: rgb(86, 156, 214);&quot;&gt;initialisation_counter&lt;/span&gt;&lt;span style=&quot;color: rgb(204, 204, 204);&quot;&gt;: &lt;/span&gt;&lt;span style=&quot;color: rgb(206, 145, 120);&quot;&gt;u8&lt;/span&gt;&lt;/span&gt;&lt;/div&gt;&lt;br&gt;&lt;/div&gt;&lt;/div&gt;&lt;/div&gt;" style="rounded=1;whiteSpace=wrap;html=1;align=left;fillColor=#323232;fontColor=#ffffff;strokeColor=#314354;arcSize=8;" parent="1" vertex="1">
                    <mxGeometry x="-120" y="440" width="560" height="220" as="geometry"/>
                </mxCell>
                <mxCell id="7" value="&lt;div style=&quot;color: rgb(204, 204, 204); font-family: Consolas, &amp;quot;Courier New&amp;quot;, monospace; font-size: 14px; line-height: 19px; white-space: pre;&quot;&gt;&lt;div style=&quot;&quot;&gt;&lt;div style=&quot;color: rgb(204, 204, 204); line-height: 19px;&quot;&gt;&lt;div style=&quot;&quot;&gt;&lt;span&gt;&lt;span style=&quot;color: rgb(204, 204, 204);&quot;&gt;&amp;nbsp; &lt;/span&gt;&lt;span style=&quot;color: rgb(86, 156, 214);&quot;&gt;high_resolution_timer_alt&lt;/span&gt;&lt;span style=&quot;color: rgb(204, 204, 204);&quot;&gt;:&lt;/span&gt;&lt;/span&gt;&lt;/div&gt;&lt;div style=&quot;&quot;&gt;&lt;span&gt;&lt;span style=&quot;color: rgb(204, 204, 204);&quot;&gt;&amp;nbsp; &amp;nbsp; &lt;/span&gt;&lt;span style=&quot;color: rgb(86, 156, 214);&quot;&gt;typename&lt;/span&gt;&lt;span style=&quot;color: rgb(204, 204, 204);&quot;&gt;: &lt;/span&gt;&lt;span style=&quot;color: rgb(206, 145, 120);&quot;&gt;high_resolution_timer_t&lt;/span&gt;&lt;/span&gt;&lt;/div&gt;&lt;div style=&quot;&quot;&gt;&lt;span&gt;&lt;span style=&quot;color: rgb(204, 204, 204);&quot;&gt;&amp;nbsp; &amp;nbsp; &lt;/span&gt;&lt;span style=&quot;color: rgb(86, 156, 214);&quot;&gt;string_serialiser&lt;/span&gt;&lt;span style=&quot;color: rgb(204, 204, 204);&quot;&gt;: &lt;/span&gt;&lt;span style=&quot;color: rgb(206, 145, 120);&quot;&gt;string_serialiser_high_res_timer&lt;/span&gt;&lt;/span&gt;&lt;/div&gt;&lt;span&gt;&lt;br&gt;&lt;/span&gt;&lt;div style=&quot;&quot;&gt;&lt;span&gt;&lt;span style=&quot;color: rgb(204, 204, 204);&quot;&gt;&amp;nbsp; &amp;nbsp; &lt;/span&gt;&lt;span style=&quot;color: rgb(86, 156, 214);&quot;&gt;model&lt;/span&gt;&lt;span style=&quot;color: rgb(204, 204, 204);&quot;&gt;:&lt;/span&gt;&lt;/span&gt;&lt;/div&gt;&lt;div style=&quot;&quot;&gt;&lt;span&gt;&lt;span style=&quot;color: rgb(204, 204, 204);&quot;&gt;&amp;nbsp; &amp;nbsp; &amp;nbsp; &lt;/span&gt;&lt;span style=&quot;color: rgb(86, 156, 214);&quot;&gt;start_time&lt;/span&gt;&lt;span style=&quot;color: rgb(204, 204, 204);&quot;&gt;: &lt;/span&gt;&lt;span style=&quot;color: rgb(206, 145, 120);&quot;&gt;u64&lt;/span&gt;&lt;/span&gt;&lt;/div&gt;&lt;div style=&quot;&quot;&gt;&lt;span&gt;&lt;span style=&quot;color: rgb(204, 204, 204);&quot;&gt;&amp;nbsp; &amp;nbsp; &amp;nbsp; &lt;/span&gt;&lt;span style=&quot;color: rgb(86, 156, 214);&quot;&gt;duration&lt;/span&gt;&lt;span style=&quot;color: rgb(204, 204, 204);&quot;&gt;: &lt;/span&gt;&lt;/span&gt;&lt;/div&gt;&lt;div style=&quot;&quot;&gt;&lt;span&gt;&lt;span style=&quot;color: rgb(204, 204, 204);&quot;&gt;&amp;nbsp; &amp;nbsp; &amp;nbsp; &amp;nbsp; &lt;/span&gt;&lt;span style=&quot;color: rgb(86, 156, 214);&quot;&gt;last&lt;/span&gt;&lt;span style=&quot;color: rgb(204, 204, 204);&quot;&gt;: &lt;/span&gt;&lt;span style=&quot;color: rgb(206, 145, 120);&quot;&gt;u32&lt;/span&gt;&lt;/span&gt;&lt;/div&gt;&lt;div style=&quot;&quot;&gt;&lt;span&gt;&lt;span style=&quot;color: rgb(204, 204, 204);&quot;&gt;&amp;nbsp; &amp;nbsp; &amp;nbsp; &amp;nbsp; &lt;/span&gt;&lt;span style=&quot;color: rgb(86, 156, 214);&quot;&gt;max&lt;/span&gt;&lt;span style=&quot;color: rgb(204, 204, 204);&quot;&gt;: &lt;/span&gt;&lt;span style=&quot;color: rgb(206, 145, 120);&quot;&gt;u32&lt;/span&gt;&lt;/span&gt;&lt;/div&gt;&lt;div style=&quot;&quot;&gt;&lt;span&gt;&lt;span style=&quot;color: rgb(204, 204, 204);&quot;&gt;&amp;nbsp; &amp;nbsp; &amp;nbsp; &amp;nbsp; &lt;/span&gt;&lt;span style=&quot;color: rgb(86, 156, 214);&quot;&gt;min&lt;/span&gt;&lt;span style=&quot;color: rgb(204, 204, 204);&quot;&gt;: &lt;/span&gt;&lt;span style=&quot;color: rgb(206, 145, 120);&quot;&gt;u32&lt;/span&gt;&lt;/span&gt;&lt;/div&gt;&lt;div style=&quot;&quot;&gt;&lt;span&gt;&lt;span style=&quot;color: rgb(204, 204, 204);&quot;&gt;&amp;nbsp; &amp;nbsp; &amp;nbsp; &amp;nbsp; &lt;/span&gt;&lt;span style=&quot;color: rgb(86, 156, 214);&quot;&gt;average&lt;/span&gt;&lt;span style=&quot;color: rgb(204, 204, 204);&quot;&gt;: &lt;/span&gt;&lt;span style=&quot;color: rgb(206, 145, 120);&quot;&gt;f32 &amp;nbsp;&lt;/span&gt;&lt;/span&gt;&lt;/div&gt;&lt;span&gt;&lt;br&gt;&lt;/span&gt;&lt;div style=&quot;&quot;&gt;&lt;span&gt;&lt;span style=&quot;color: rgb(204, 204, 204);&quot;&gt;&amp;nbsp; &amp;nbsp; &amp;nbsp; &lt;/span&gt;&lt;span style=&quot;color: rgb(86, 156, 214);&quot;&gt;time_between_calls&lt;/span&gt;&lt;span style=&quot;color: rgb(204, 204, 204);&quot;&gt;: &lt;/span&gt;&lt;/span&gt;&lt;/div&gt;&lt;div style=&quot;&quot;&gt;&lt;span&gt;&lt;span style=&quot;color: rgb(204, 204, 204);&quot;&gt;&amp;nbsp; &amp;nbsp; &amp;nbsp; &amp;nbsp; &lt;/span&gt;&lt;span style=&quot;color: rgb(86, 156, 214);&quot;&gt;last&lt;/span&gt;&lt;span style=&quot;color: rgb(204, 204, 204);&quot;&gt;: &lt;/span&gt;&lt;span style=&quot;color: rgb(206, 145, 120);&quot;&gt;u32&lt;/span&gt;&lt;/span&gt;&lt;/div&gt;&lt;div style=&quot;&quot;&gt;&lt;span&gt;&lt;span style=&quot;color: rgb(204, 204, 204);&quot;&gt;&amp;nbsp; &amp;nbsp; &amp;nbsp; &amp;nbsp; &lt;/span&gt;&lt;span style=&quot;color: rgb(86, 156, 214);&quot;&gt;max&lt;/span&gt;&lt;span style=&quot;color: rgb(204, 204, 204);&quot;&gt;: &lt;/span&gt;&lt;span style=&quot;color: rgb(206, 145, 120);&quot;&gt;u32&lt;/span&gt;&lt;/span&gt;&lt;/div&gt;&lt;div style=&quot;&quot;&gt;&lt;span&gt;&lt;span style=&quot;color: rgb(204, 204, 204);&quot;&gt;&amp;nbsp; &amp;nbsp; &amp;nbsp; &amp;nbsp; &lt;/span&gt;&lt;span style=&quot;color: rgb(86, 156, 214);&quot;&gt;min&lt;/span&gt;&lt;span style=&quot;color: rgb(204, 204, 204);&quot;&gt;: &lt;/span&gt;&lt;span style=&quot;color: rgb(206, 145, 120);&quot;&gt;u32&lt;/span&gt;&lt;/span&gt;&lt;/div&gt;&lt;div style=&quot;&quot;&gt;&lt;span&gt;&lt;span style=&quot;color: rgb(204, 204, 204);&quot;&gt;&amp;nbsp; &amp;nbsp; &amp;nbsp; &amp;nbsp; &lt;/span&gt;&lt;span style=&quot;color: rgb(86, 156, 214);&quot;&gt;average&lt;/span&gt;&lt;span style=&quot;color: rgb(204, 204, 204);&quot;&gt;: &lt;/span&gt;&lt;span style=&quot;color: rgb(206, 145, 120);&quot;&gt;f32 &amp;nbsp;&lt;/span&gt;&lt;/span&gt;&lt;/div&gt;&lt;div style=&quot;&quot;&gt;&lt;span style=&quot;color: rgb(204, 204, 204);&quot;&gt;&amp;nbsp; &amp;nbsp; &amp;nbsp; &amp;nbsp; &lt;/span&gt;&lt;/div&gt;&lt;div style=&quot;&quot;&gt;&lt;span&gt;&lt;span style=&quot;color: rgb(204, 204, 204);&quot;&gt;&amp;nbsp; &amp;nbsp; &amp;nbsp; &lt;/span&gt;&lt;span style=&quot;color: rgb(86, 156, 214);&quot;&gt;last_reset_time&lt;/span&gt;&lt;span style=&quot;color: rgb(204, 204, 204);&quot;&gt;: &lt;/span&gt;&lt;span style=&quot;color: rgb(206, 145, 120);&quot;&gt;u64&lt;/span&gt;&lt;/span&gt;&lt;/div&gt;&lt;div style=&quot;&quot;&gt;&lt;span&gt;&lt;span style=&quot;color: rgb(204, 204, 204);&quot;&gt;&amp;nbsp; &amp;nbsp; &amp;nbsp; &lt;/span&gt;&lt;span style=&quot;color: rgb(86, 156, 214);&quot;&gt;initialisation_counter&lt;/span&gt;&lt;span style=&quot;color: rgb(204, 204, 204);&quot;&gt;: &lt;/span&gt;&lt;span style=&quot;color: rgb(206, 145, 120);&quot;&gt;u8&lt;/span&gt;&lt;/span&gt;&lt;/div&gt;&lt;br&gt;&lt;/div&gt;&lt;/div&gt;&lt;/div&gt;" style="rounded=1;whiteSpace=wrap;html=1;align=left;fillColor=#323232;fontColor=#ffffff;strokeColor=#314354;arcSize=3;" parent="1" vertex="1">
                    <mxGeometry x="-120" y="680" width="560" height="430" as="geometry"/>
                </mxCell>
                <mxCell id="8" value="This references to the timer statistics type" style="rounded=1;whiteSpace=wrap;html=1;fillColor=#e3c800;fontColor=#000000;strokeColor=#B09500;" parent="1" vertex="1">
                    <mxGeometry x="230" y="560" width="140" height="30" as="geometry"/>
                </mxCell>
                <mxCell id="9" value="Type definition (defined in yaml)" style="rounded=1;whiteSpace=wrap;html=1;fillColor=#76608a;fontColor=#ffffff;strokeColor=#432D57;fontSize=18;" parent="1" vertex="1">
                    <mxGeometry x="-100" y="-10" width="480" height="60" as="geometry"/>
                </mxCell>
                <mxCell id="10" value="Type registry" style="rounded=1;whiteSpace=wrap;html=1;fillColor=#76608a;fontColor=#ffffff;strokeColor=#432D57;fontSize=18;" parent="1" vertex="1">
                    <mxGeometry x="570" y="-40" width="480" height="60" as="geometry"/>
                </mxCell>
                <mxCell id="11" value="&lt;div style=&quot;color: rgb(204, 204, 204); font-family: Consolas, &amp;quot;Courier New&amp;quot;, monospace; font-size: 14px; line-height: 19px; white-space: pre;&quot;&gt;&lt;div style=&quot;&quot;&gt;&lt;div style=&quot;color: rgb(204, 204, 204); line-height: 19px;&quot;&gt;&lt;div style=&quot;&quot;&gt;&lt;span&gt;&lt;span style=&quot;color: rgb(204, 204, 204);&quot;&gt;&amp;nbsp; &lt;/span&gt;&lt;span style=&quot;color: rgb(86, 156, 214);&quot;&gt;custom_float&lt;/span&gt;&lt;span style=&quot;color: rgb(204, 204, 204);&quot;&gt;:&lt;/span&gt;&lt;/span&gt;&lt;/div&gt;&lt;div style=&quot;&quot;&gt;&lt;span&gt;&lt;span style=&quot;color: rgb(204, 204, 204);&quot;&gt;&amp;nbsp; &amp;nbsp; &lt;/span&gt;&lt;span style=&quot;color: rgb(86, 156, 214);&quot;&gt;typename&lt;/span&gt;&lt;span style=&quot;color: rgb(204, 204, 204);&quot;&gt;: &lt;/span&gt;&lt;span style=&quot;color: rgb(206, 145, 120);&quot;&gt;custom_float_t&lt;/span&gt;&lt;/span&gt;&lt;/div&gt;&lt;div style=&quot;&quot;&gt;&lt;span&gt;&lt;span style=&quot;color: rgb(204, 204, 204);&quot;&gt;&amp;nbsp; &amp;nbsp; &lt;/span&gt;&lt;span style=&quot;color: rgb(86, 156, 214);&quot;&gt;string_serialiser&lt;/span&gt;&lt;span style=&quot;color: rgb(204, 204, 204);&quot;&gt;: &lt;/span&gt;&lt;span style=&quot;color: rgb(206, 145, 120);&quot;&gt;custom_float_serialiser&lt;/span&gt;&lt;/span&gt;&lt;/div&gt;&lt;div style=&quot;&quot;&gt;&lt;span&gt;&lt;span style=&quot;color: rgb(204, 204, 204);&quot;&gt;&amp;nbsp; &amp;nbsp; &lt;/span&gt;&lt;span style=&quot;color: rgb(86, 156, 214);&quot;&gt;model&lt;/span&gt;&lt;span style=&quot;color: rgb(204, 204, 204);&quot;&gt;: &lt;/span&gt;&lt;span style=&quot;color: rgb(206, 145, 120);&quot;&gt;f32&lt;/span&gt;&lt;/span&gt;&lt;/div&gt;&lt;/div&gt;&lt;/div&gt;&lt;/div&gt;" style="rounded=1;whiteSpace=wrap;html=1;align=left;fillColor=#323232;fontColor=#ffffff;strokeColor=#314354;arcSize=13;" parent="1" vertex="1">
                    <mxGeometry x="-120" y="100" width="560" height="110" as="geometry"/>
                </mxCell>
                <mxCell id="12" style="edgeStyle=none;html=1;exitX=0.75;exitY=0;exitDx=0;exitDy=0;entryX=0.813;entryY=0.5;entryDx=0;entryDy=0;entryPerimeter=0;fillColor=#f0a30a;strokeColor=#BD7000;strokeWidth=5;" parent="1" source="8" target="5" edge="1">
                    <mxGeometry relative="1" as="geometry"/>
                </mxCell>
                <mxCell id="13" value="&lt;b&gt;Registry&lt;/b&gt;" style="rounded=1;whiteSpace=wrap;html=1;verticalAlign=top;arcSize=5;" parent="1" vertex="1">
                    <mxGeometry x="630" y="180" width="180" height="260" as="geometry"/>
                </mxCell>
                <mxCell id="14" value="Build in type" style="rounded=1;whiteSpace=wrap;html=1;" parent="1" vertex="1">
                    <mxGeometry x="660" y="220" width="120" height="20" as="geometry"/>
                </mxCell>
                <mxCell id="15" value="Custom type" style="rounded=1;whiteSpace=wrap;html=1;" parent="1" vertex="1">
                    <mxGeometry x="660" y="315" width="120" height="20" as="geometry"/>
                </mxCell>
                <mxCell id="16" value="Build in type" style="rounded=1;whiteSpace=wrap;html=1;" parent="1" vertex="1">
                    <mxGeometry x="660" y="240" width="120" height="20" as="geometry"/>
                </mxCell>
                <mxCell id="17" value="Build in type" style="rounded=1;whiteSpace=wrap;html=1;" parent="1" vertex="1">
                    <mxGeometry x="660" y="260" width="120" height="20" as="geometry"/>
                </mxCell>
                <mxCell id="18" value="Build in type" style="rounded=1;whiteSpace=wrap;html=1;" parent="1" vertex="1">
                    <mxGeometry x="660" y="280" width="120" height="20" as="geometry"/>
                </mxCell>
                <mxCell id="19" value="Custom type" style="rounded=1;whiteSpace=wrap;html=1;" parent="1" vertex="1">
                    <mxGeometry x="660" y="335" width="120" height="20" as="geometry"/>
                </mxCell>
                <mxCell id="20" value="Custom type" style="rounded=1;whiteSpace=wrap;html=1;" parent="1" vertex="1">
                    <mxGeometry x="660" y="355" width="120" height="20" as="geometry"/>
                </mxCell>
                <mxCell id="21" value="Custom type" style="rounded=1;whiteSpace=wrap;html=1;" parent="1" vertex="1">
                    <mxGeometry x="660" y="375" width="120" height="20" as="geometry"/>
                </mxCell>
                <mxCell id="22" value="Custom type" style="rounded=1;whiteSpace=wrap;html=1;" parent="1" vertex="1">
                    <mxGeometry x="660" y="395" width="120" height="20" as="geometry"/>
                </mxCell>
                <mxCell id="23" value="&lt;div style=&quot;color: rgb(204, 204, 204); font-family: Consolas, &amp;quot;Courier New&amp;quot;, monospace; font-size: 14px; line-height: 19px; white-space: pre;&quot;&gt;&lt;div style=&quot;&quot;&gt;&lt;div style=&quot;color: rgb(204, 204, 204); line-height: 19px;&quot;&gt;&lt;div style=&quot;&quot;&gt;&lt;div style=&quot;color: rgb(204, 204, 204); line-height: 19px;&quot;&gt;&lt;div style=&quot;&quot;&gt;&lt;span&gt;&lt;span style=&quot;color: rgb(204, 204, 204);&quot;&gt;&amp;nbsp; &lt;/span&gt;&lt;span style=&quot;color: rgb(86, 156, 214);&quot;&gt;array_test&lt;/span&gt;&lt;span style=&quot;color: rgb(204, 204, 204);&quot;&gt;:&lt;/span&gt;&lt;/span&gt;&lt;/div&gt;&lt;div style=&quot;&quot;&gt;&lt;span&gt;&lt;span style=&quot;color: rgb(204, 204, 204);&quot;&gt;&amp;nbsp; &amp;nbsp; &lt;/span&gt;&lt;span style=&quot;color: rgb(86, 156, 214);&quot;&gt;typename&lt;/span&gt;&lt;span style=&quot;color: rgb(204, 204, 204);&quot;&gt;: &lt;/span&gt;&lt;span style=&quot;color: rgb(206, 145, 120);&quot;&gt;three_axis_sensor_calibration_t&lt;/span&gt;&lt;/span&gt;&lt;/div&gt;&lt;div style=&quot;&quot;&gt;&lt;span&gt;&lt;span style=&quot;color: rgb(204, 204, 204);&quot;&gt;&amp;nbsp; &amp;nbsp; &lt;/span&gt;&lt;span style=&quot;color: rgb(86, 156, 214);&quot;&gt;string_serialiser&lt;/span&gt;&lt;span style=&quot;color: rgb(204, 204, 204);&quot;&gt;: &lt;/span&gt;&lt;span style=&quot;color: rgb(206, 145, 120);&quot;&gt;string_serialiser_three_axis_sensor_calibration&lt;/span&gt;&lt;/span&gt;&lt;/div&gt;&lt;span&gt;&lt;br&gt;&lt;/span&gt;&lt;div style=&quot;&quot;&gt;&lt;span&gt;&lt;span style=&quot;color: rgb(204, 204, 204);&quot;&gt;&amp;nbsp; &amp;nbsp; &lt;/span&gt;&lt;span style=&quot;color: rgb(86, 156, 214);&quot;&gt;model&lt;/span&gt;&lt;span style=&quot;color: rgb(204, 204, 204);&quot;&gt;:&lt;/span&gt;&lt;/span&gt;&lt;/div&gt;&lt;div style=&quot;&quot;&gt;&lt;span&gt;&lt;span style=&quot;color: rgb(204, 204, 204);&quot;&gt;&amp;nbsp; &amp;nbsp; &amp;nbsp; &lt;/span&gt;&lt;span style=&quot;color: rgb(86, 156, 214);&quot;&gt;matrix&lt;/span&gt;&lt;span style=&quot;color: rgb(204, 204, 204);&quot;&gt;:&lt;/span&gt;&lt;/span&gt;&lt;/div&gt;&lt;div style=&quot;&quot;&gt;&lt;span&gt;&lt;span style=&quot;color: rgb(204, 204, 204);&quot;&gt;&amp;nbsp; &amp;nbsp; &amp;nbsp; &amp;nbsp; &lt;/span&gt;&lt;span style=&quot;color: rgb(86, 156, 214);&quot;&gt;row1&lt;/span&gt;&lt;span style=&quot;color: rgb(204, 204, 204);&quot;&gt;: [&lt;/span&gt;&lt;span style=&quot;color: rgb(206, 145, 120);&quot;&gt;f32&lt;/span&gt;&lt;span style=&quot;color: rgb(204, 204, 204);&quot;&gt;, &lt;/span&gt;&lt;span style=&quot;color: rgb(206, 145, 120);&quot;&gt;f32&lt;/span&gt;&lt;span style=&quot;color: rgb(204, 204, 204);&quot;&gt;, &lt;/span&gt;&lt;span style=&quot;color: rgb(206, 145, 120);&quot;&gt;f32&lt;/span&gt;&lt;span style=&quot;color: rgb(204, 204, 204);&quot;&gt;]&lt;/span&gt;&lt;/span&gt;&lt;/div&gt;&lt;div style=&quot;&quot;&gt;&lt;span&gt;&lt;span style=&quot;color: rgb(204, 204, 204);&quot;&gt;&amp;nbsp; &amp;nbsp; &amp;nbsp; &amp;nbsp; &lt;/span&gt;&lt;span style=&quot;color: rgb(86, 156, 214);&quot;&gt;row2&lt;/span&gt;&lt;span style=&quot;color: rgb(204, 204, 204);&quot;&gt;: [&lt;/span&gt;&lt;span style=&quot;color: rgb(206, 145, 120);&quot;&gt;f32&lt;/span&gt;&lt;span style=&quot;color: rgb(204, 204, 204);&quot;&gt;, &lt;/span&gt;&lt;span style=&quot;color: rgb(206, 145, 120);&quot;&gt;f32&lt;/span&gt;&lt;span style=&quot;color: rgb(204, 204, 204);&quot;&gt;, &lt;/span&gt;&lt;span style=&quot;color: rgb(206, 145, 120);&quot;&gt;f32&lt;/span&gt;&lt;span style=&quot;color: rgb(204, 204, 204);&quot;&gt;]&lt;/span&gt;&lt;/span&gt;&lt;/div&gt;&lt;div style=&quot;&quot;&gt;&lt;span&gt;&lt;span style=&quot;color: rgb(204, 204, 204);&quot;&gt;&amp;nbsp; &amp;nbsp; &amp;nbsp; &amp;nbsp; &lt;/span&gt;&lt;span style=&quot;color: rgb(86, 156, 214);&quot;&gt;row3&lt;/span&gt;&lt;span style=&quot;color: rgb(204, 204, 204);&quot;&gt;: [&lt;/span&gt;&lt;span style=&quot;color: rgb(206, 145, 120);&quot;&gt;f32&lt;/span&gt;&lt;span style=&quot;color: rgb(204, 204, 204);&quot;&gt;, &lt;/span&gt;&lt;span style=&quot;color: rgb(206, 145, 120);&quot;&gt;f32&lt;/span&gt;&lt;span style=&quot;color: rgb(204, 204, 204);&quot;&gt;, &lt;/span&gt;&lt;span style=&quot;color: rgb(206, 145, 120);&quot;&gt;f32&lt;/span&gt;&lt;span style=&quot;color: rgb(204, 204, 204);&quot;&gt;]&lt;/span&gt;&lt;/span&gt;&lt;/div&gt;&lt;/div&gt;&lt;/div&gt;&lt;/div&gt;&lt;/div&gt;&lt;/div&gt;" style="rounded=1;whiteSpace=wrap;html=1;align=left;fillColor=#323232;fontColor=#ffffff;strokeColor=#314354;arcSize=3;" vertex="1" parent="1">
                    <mxGeometry x="-130" y="1150" width="560" height="220" as="geometry"/>
                </mxCell>
            </root>
        </mxGraphModel>
    </diagram>
</mxfile>